<svg width="165" height="37" viewBox="0 0 165 37" fill="none" xmlns="http://www.w3.org/2000/svg">
<rect x="12" width="38" height="7" fill="#F2E2FE"/>
<rect y="14.1094" width="38.1217" height="7" fill="#F2E2FE"/>
<rect x="12.1885" y="29.1582" width="33.3578" height="7" fill="#F2E2FE"/>
<path d="M77.6342 12.2083C77.3516 9.52688 75.1858 7.92742 71.7486 7.92742C68.1702 7.92742 66.1927 9.57392 66.1456 11.832C66.0985 14.2782 68.6881 15.4073 71.6074 16.0659L74.6678 16.8185C80.5063 18.1358 84.8851 21.0995 84.8851 26.7917C84.8851 33.0484 79.9884 37 71.7015 37C63.4618 37 58.1883 33.1895 58 25.8978H64.8743C65.1097 29.332 67.8406 31.0726 71.6074 31.0726C75.327 31.0726 77.7283 29.332 77.7283 26.7917C77.7283 24.4866 75.6095 23.4046 71.8899 22.4637L68.1702 21.5699C62.4259 20.1586 58.8946 17.289 58.8946 12.3024C58.8946 6.09274 64.3564 2 71.7957 2C79.3292 2 84.3201 6.18683 84.4143 12.2083H77.6342Z" fill="#F2E2FE"/>
<path d="M89.4994 36.5296V2.47043H96.562V30.6962H111.252V36.5296H89.4994Z" fill="#F2E2FE"/>
<path d="M115.82 36.5296V2.47043H122.882V30.6962H137.572V36.5296H115.82Z" fill="#F2E2FE"/>
<path d="M133.077 2.47043H141.034L148.897 17.1478H149.227L157.043 2.47043H165L152.57 24.3925V36.5296H145.507V24.3925L133.077 2.47043Z" fill="#F2E2FE"/>
</svg>
